<svg id="visual" viewBox="0 0 700 580" xmlns="http://www.w3.org/2000/svg" version="1.1">
    <defs>
        <linearGradient id="grad1" x1="0%" y1="0%" x2="100%" y2="0%">
            <stop offset="0%" style="stop-color:#FCAF3C;stop-opacity:1" />
            <stop offset="100%" style="stop-color:#fcd93c;stop-opacity:1" />
        </linearGradient>
    </defs>
    <g transform="translate(473.6731973091775 294.8552375564349)">
        <path d="M140.5 -185.3C172.2 -140.9 181.1 -87.2 181.2 -39C181.3 9.2 172.5 51.8 157.8 104.1C143.1 156.3 122.5 218.2 78.9 247.4C35.2 276.6 -31.5 273.1 -84 247C-136.5 220.8 -174.7 171.9 -199.9 119.6C-225.1 67.4 -237.1 11.7 -221.7 -32.7C-206.3 -77.2 -163.4 -110.4 -121.9 -153.1C-80.4 -195.8 -40.2 -247.9 7.1 -256.4C54.4 -264.9 108.8 -229.7 140.5 -185.3"
              fill="url(#grad1)"></path>
    </g>
</svg>